# xmcd
#
# Track frame offsets: 
#        150
#        15385
#        23259
#        36781
#        53062
#        62294
#        78857
#        92313
#        103418
#        118097
#        134973
#        146193
#        151798
#        181005
#        187646
#        203187
#
# Disc length: 2785 seconds
#
# Revision: 0
# Processed by: cddbd v1.5.2PL0 Copyright (c) Steve Scherf et al.
# Submitted via: ExactAudioCopy v0.99pb5
#
DISCID=c00adf10
DTITLE=Hank Williams - Hank Williams Revealed [CD2]
DYEAR=2009
DGENRE=country
TTITLE0=That Beautiful Home
TTITLE1=How Can You Refuse Him Now
TTITLE2=Lord, Build Me A Cabin In Glory
TTITLE3=Farther Along
TTITLE4=Calling You
TTITLE5=I Am Bound For The Promised Land
TTITLE6=Dear Brother
TTITLE7=Jesus Died For Me
TTITLE8=At The Cross
TTITLE9=Thirty Pieces Of Silver
TTITLE10=Hank and Audry - Something Got Hold Of Me
TTITLE11=Lovesick Blues
TTITLE12=My Sweet Love Ain't Around
TTITLE13=Jerry Rivers and The Drifting Cowboys - Fire On The Mountain
TTITLE14=I Saw The Light
TTITLE15=Closing Theme
EXTD=
EXTT0=
EXTT1=
EXTT2=
EXTT3=
EXTT4=
EXTT5=
EXTT6=
EXTT7=
EXTT8=
EXTT9=
EXTT10=
EXTT11=
EXTT12=
EXTT13=
EXTT14=
EXTT15=
PLAYORDER=
